<svg width="23" height="23" viewBox="0 0 23 23" fill="none" xmlns="http://www.w3.org/2000/svg">
<path fill-rule="evenodd" clip-rule="evenodd" d="M21.9818 1.37166C22.187 0.858873 21.9375 0.276903 21.4248 0.0717893C20.912 -0.133324 20.33 0.116092 20.1249 0.628875L18.6701 4.26574C18.1533 3.82358 17.4797 3.55063 16.7246 3.55063H3.00224C0.961336 3.55063 -0.483851 5.54442 0.15114 7.48403L2.11543 13.484C2.51903 14.7169 3.66931 15.5506 4.96653 15.5506H14.7603C16.0575 15.5506 17.2078 14.7169 17.6114 13.484L19.5757 7.48403C19.6847 7.15109 19.7324 6.81656 19.7263 6.49078C19.9005 6.38218 20.0428 6.21918 20.1249 6.01404L21.9818 1.37166ZM3.00224 5.55063H16.7246C17.4049 5.55063 17.8866 6.21523 17.675 6.86177L15.7107 12.8618C15.5761 13.2727 15.1927 13.5506 14.7603 13.5506H4.96653C4.53412 13.5506 4.1507 13.2727 4.01616 12.8618L2.05187 6.86176C1.84021 6.21523 2.32194 5.55063 3.00224 5.55063ZM7.49628 19.2004C7.49628 20.0288 6.82471 20.7004 5.99628 20.7004C5.16785 20.7004 4.49628 20.0288 4.49628 19.2004C4.49628 18.372 5.16785 17.7004 5.99628 17.7004C6.82471 17.7004 7.49628 18.372 7.49628 19.2004ZM9.49628 19.2004C9.49628 21.1334 7.92928 22.7004 5.99628 22.7004C4.06328 22.7004 2.49628 21.1334 2.49628 19.2004C2.49628 17.2674 4.06328 15.7004 5.99628 15.7004C7.92928 15.7004 9.49628 17.2674 9.49628 19.2004ZM13.9963 20.7004C14.8247 20.7004 15.4963 20.0288 15.4963 19.2004C15.4963 18.372 14.8247 17.7004 13.9963 17.7004C13.1679 17.7004 12.4963 18.372 12.4963 19.2004C12.4963 20.0288 13.1679 20.7004 13.9963 20.7004ZM13.9963 22.7004C15.9293 22.7004 17.4963 21.1334 17.4963 19.2004C17.4963 17.2674 15.9293 15.7004 13.9963 15.7004C12.0633 15.7004 10.4963 17.2674 10.4963 19.2004C10.4963 21.1334 12.0633 22.7004 13.9963 22.7004Z" fill="black"/>
</svg>
